<svg width="100" height="100" viewBox="0 0 100 100" fill="none" xmlns="http://www.w3.org/2000/svg">
<path d="M68.9022 100V61.3022H81.8594L83.7989 46.2583H68.9022V36.6536C68.9022 32.298 70.1111 29.3297 76.3572 29.3297L84.3239 29.3259V15.8709C82.9456 15.6879 78.2172 15.2781 72.7156 15.2781C61.2294 15.2781 53.3667 22.2888 53.3667 35.164V46.2583H40.3761V61.3022H53.3667V100H5.55556C2.48733 100 0 97.5128 0 94.4444V5.55556C0 2.48733 2.48733 0 5.55556 0H94.4444C97.5128 0 100 2.48733 100 5.55556V94.4444C100 97.5128 97.5128 100 94.4444 100H68.9022Z" fill="#F6F4F3"/>
</svg>
