<svg width="100" height="100" viewBox="0 0 100 100" fill="none" xmlns="http://www.w3.org/2000/svg">
<path d="M55.1375 0C60.7647 0.00930034 63.6163 0.0391015 66.0804 0.112454L67.0509 0.144156C68.1719 0.184007 69.278 0.234008 70.6115 0.296511C75.9322 0.54237 79.5618 1.38405 82.7494 2.6216C86.045 3.89249 88.8286 5.6092 91.6077 8.38851C94.3828 11.1678 96.0999 13.9595 97.3749 17.2471C98.608 20.4306 99.45 24.0641 99.7 29.3851C99.7595 30.7185 99.8075 31.8245 99.847 32.9458L99.8785 33.9162C99.9515 36.38 99.985 39.2321 99.9955 44.8595L99.9995 48.5876C100 49.0431 100 49.5132 100 49.9982L99.9965 55.1374C99.987 60.7646 99.9575 63.6167 99.884 66.0803L99.852 67.0508C99.8125 68.1723 99.7625 69.2784 99.7 70.6114C99.454 75.9326 98.608 79.5618 97.3749 82.7494C96.1039 86.0455 94.3828 88.8291 91.6077 91.6082C88.8286 94.3833 86.0325 96.0999 82.7494 97.3749C79.5618 98.6085 75.9322 99.45 70.6115 99.7C69.278 99.7595 68.1719 99.808 67.0509 99.847L66.0804 99.8785C63.6163 99.952 60.7647 99.985 55.1375 99.996L51.4088 100C50.9533 100 50.4833 100 49.9983 100L44.8591 99.9965C39.2319 99.9875 36.3799 99.9575 33.9161 99.884L32.9457 99.8525C31.8244 99.8125 30.7183 99.7625 29.385 99.7C24.064 99.4545 20.4388 98.6085 17.2471 97.3749C13.9553 96.1044 11.1677 94.3833 8.38844 91.6082C5.60919 88.8291 3.89663 86.033 2.62159 82.7494C1.38405 79.5618 0.54652 75.9326 0.296511 70.6114C0.237109 69.2784 0.188657 68.1723 0.149405 67.0508L0.117954 66.0803C0.044802 63.6167 0.0114513 60.7646 0.000650905 55.1374L0 44.8595C0.00930032 39.2321 0.0390514 36.38 0.112404 33.9162L0.144155 32.9458C0.184007 31.8245 0.234009 30.7185 0.296511 29.3851C0.542319 24.0599 1.38405 20.4347 2.62159 17.2471C3.89243 13.9554 5.60919 11.1678 8.38844 8.38851C11.1677 5.6092 13.9595 3.89664 17.2471 2.6216C20.4347 1.38405 24.0598 0.54652 29.385 0.296511C30.7183 0.237158 31.8244 0.188707 32.9457 0.149456L33.9161 0.118004C36.3799 0.044801 39.2319 0.0114501 44.8591 0.000649714L55.1375 0ZM49.9983 24.9974C36.1832 24.9974 24.9974 36.1955 24.9974 49.9982C24.9974 63.8132 36.1954 74.9991 49.9983 74.9991C63.8133 74.9991 74.9992 63.8012 74.9992 49.9982C74.9992 36.1833 63.8008 24.9974 49.9983 24.9974ZM49.9983 34.9978C58.2831 34.9978 64.9988 41.7114 64.9988 49.9982C64.9988 58.283 58.2851 64.9987 49.9983 64.9987C41.7135 64.9987 34.9977 58.2855 34.9977 49.9982C34.9977 41.7134 41.711 34.9978 49.9983 34.9978ZM76.2492 17.4971C72.8026 17.4971 69.999 20.2968 69.999 23.7431C69.999 27.1895 72.7986 29.9934 76.2492 29.9934C79.6953 29.9934 82.4994 27.1938 82.4994 23.7431C82.4994 20.2968 79.6908 17.4928 76.2492 17.4971Z" fill="#F6F4F3"/>
</svg>
