<svg width="100" height="100" viewBox="0 0 100 100" fill="none" xmlns="http://www.w3.org/2000/svg">
<path d="M85.1956 85.2167H70.3873V62.0122C70.3873 56.4789 70.275 49.3583 62.6706 49.3583C54.9501 49.3583 53.7706 55.3794 53.7706 61.6039V85.2167H38.9623V37.5H53.1873V44.0039H53.3789C55.3667 40.2539 60.2 36.2958 67.4206 36.2958C82.425 36.2958 85.2 46.1711 85.2 59.025L85.1956 85.2167ZM22.2375 30.9708C17.4708 30.9708 13.6417 27.1125 13.6417 22.3667C13.6417 17.625 17.475 13.7708 22.2375 13.7708C26.9875 13.7708 30.8375 17.625 30.8375 22.3667C30.8375 27.1125 26.9833 30.9708 22.2375 30.9708ZM29.6625 85.2167H14.8125V37.5H29.6625V85.2167ZM92.6039 0H7.37916C3.3 0 0 3.225 0 7.20417V92.7961C0 96.7789 3.3 100 7.37916 100H92.5917C96.6667 100 100 96.7789 100 92.7961V7.20417C100 3.225 96.6667 0 92.5917 0H92.6039Z" fill="#F6F4F3"/>
</svg>
