<svg width="100" height="82" viewBox="0 0 100 82" fill="none" xmlns="http://www.w3.org/2000/svg">
<path d="M100 9.62361C96.255 11.2803 92.2833 12.3684 88.217 12.8519C92.5011 10.2872 95.707 6.25264 97.2371 1.49974C93.2115 3.89157 88.8052 5.57502 84.21 6.47688C80.331 2.33867 74.9097 -0.00641331 69.2377 1.31738e-05C57.9094 1.31738e-05 48.7215 9.18484 48.7215 20.5181C48.7215 22.126 48.906 23.6852 49.2508 25.1896C32.193 24.3309 17.0815 16.1678 6.95954 3.75323C5.13712 6.88435 4.17933 10.4435 4.18418 14.0663C4.18418 21.1841 7.80735 27.4666 13.311 31.1447C10.053 31.0417 6.86683 30.1618 4.01808 28.5777C4.01494 28.6639 4.01494 28.7501 4.01494 28.8316C4.01494 38.7751 11.0873 47.0697 20.4758 48.953C18.7137 49.4298 16.8963 49.6707 15.0709 49.6692C13.7451 49.6692 12.4585 49.5471 11.2079 49.3072C13.8203 57.4566 21.3926 63.3895 30.3736 63.5524C23.106 69.2563 14.1313 72.3508 4.89252 72.3375C3.2574 72.339 1.62365 72.2424 0 72.0491C9.37934 78.0787 20.2969 81.2787 31.4471 81.2669C69.1877 81.2669 89.8231 50.0048 89.8231 22.8939C89.8231 22.0069 89.8015 21.1168 89.7623 20.2392C93.7786 17.3374 97.2454 13.7425 100 9.62361Z" fill="#F6F4F3"/>
</svg>
