<svg width="100" height="100" viewBox="0 0 100 100" fill="none" xmlns="http://www.w3.org/2000/svg">
<path d="M85.0223 14.5312C75.6696 5.15625 63.2143 0 49.9777 0C22.6562 0 0.424107 22.2321 0.424107 49.5536C0.424107 58.2812 2.70089 66.808 7.03125 74.3304L0 100L26.2723 93.1027C33.5045 97.0536 41.6518 99.1295 49.9554 99.1295H49.9777C77.2768 99.1295 100 76.8973 100 49.5759C100 36.3393 94.375 23.9062 85.0223 14.5312ZM49.9777 90.7813C42.567 90.7813 35.3125 88.7946 28.9955 85.0446L27.5 84.1518L11.9196 88.2366L16.0714 73.0357L15.0893 71.4732C10.9598 64.9107 8.79464 57.3437 8.79464 49.5536C8.79464 26.8527 27.2768 8.37054 50 8.37054C61.0045 8.37054 71.3393 12.6562 79.1071 20.4464C86.875 28.2366 91.6518 38.5714 91.6295 49.5759C91.6295 72.2991 72.6786 90.7813 49.9777 90.7813ZM72.567 59.933C71.3393 59.308 65.2455 56.317 64.1071 55.9152C62.9688 55.4911 62.1429 55.2902 61.317 56.5402C60.4911 57.7902 58.125 60.558 57.3884 61.4063C56.6741 62.2321 55.9375 62.3437 54.7098 61.7187C47.433 58.0804 42.6563 55.2232 37.8571 46.9866C36.5848 44.7991 39.1295 44.9554 41.4955 40.2232C41.8973 39.3973 41.6964 38.683 41.3839 38.058C41.0714 37.433 38.5938 31.3393 37.567 28.8616C36.5625 26.4509 35.5357 26.7857 34.7768 26.7411C34.0625 26.6964 33.2366 26.6964 32.4107 26.6964C31.5848 26.6964 30.2455 27.0089 29.1071 28.2366C27.9687 29.4866 24.7768 32.4777 24.7768 38.5714C24.7768 44.6652 29.2188 50.558 29.8214 51.3839C30.4464 52.2098 38.5491 64.7098 50.9821 70.0893C58.8393 73.4821 61.9196 73.7723 65.8482 73.192C68.2366 72.8348 73.1696 70.2009 74.1964 67.2991C75.2232 64.3973 75.2232 61.9196 74.9107 61.4063C74.6205 60.8482 73.7946 60.5357 72.567 59.933Z" fill="#F6F4F3"/>
</svg>
