<svg width="100" height="80" viewBox="0 0 100 80" fill="none" xmlns="http://www.w3.org/2000/svg">
<path d="M51.2218 0C53.8924 0.0147007 60.5742 0.0793039 67.6735 0.363667L70.1907 0.47342C77.3385 0.811836 84.4803 1.38996 88.0225 2.37761C92.7472 3.70492 96.4608 7.57784 97.7159 12.4872C99.7145 20.283 99.9645 35.4986 99.9955 39.1808L100 39.9438V39.9973C100 39.9973 100 40.0158 100 40.0513L99.9955 40.8143C99.9645 44.4965 99.7145 59.7122 97.7159 67.508C96.4433 72.4353 92.7297 76.3084 88.0225 77.6175C84.4803 78.605 77.3385 79.1831 70.1907 79.5216L67.6735 79.6311C60.5742 79.9156 53.8924 79.9801 51.2218 79.9951L50.0498 79.9991H49.9977C49.9977 79.9991 49.9802 79.9991 49.9457 79.9991L48.7747 79.9951C43.1224 79.9641 19.4895 79.7086 11.9731 77.6175C7.24833 76.2899 3.53476 72.4173 2.27945 67.508C0.281012 59.7122 0.0312014 44.4965 0 40.8143V39.1808C0.0312014 35.4986 0.281012 20.283 2.27945 12.4872C3.55216 7.55964 7.26573 3.68677 11.9731 2.37761C19.4895 0.286163 43.1224 0.0311014 48.7747 0H51.2218ZM39.9974 22.4967V57.4981L69.9986 39.9973L39.9974 22.4967Z" fill="#F6F4F3"/>
</svg>
